<svg id="visual" viewBox="0 0 960 540" width="960" height="540" xmlns="http://www.w3.org/2000/svg" xmlns:xlink="http://www.w3.org/1999/xlink" version="1.1"><rect x="0" y="0" width="960" height="540" fill="#ffffff"></rect><path d="M0 335L22.8 343.5C45.7 352 91.3 369 137 379.5C182.7 390 228.3 394 274 394.8C319.7 395.7 365.3 393.3 411.2 387.2C457 381 503 371 548.8 363.7C594.7 356.3 640.3 351.7 686 355.8C731.7 360 777.3 373 823 376.7C868.7 380.3 914.3 374.7 937.2 371.8L960 369L960 541L937.2 541C914.3 541 868.7 541 823 541C777.3 541 731.7 541 686 541C640.3 541 594.7 541 548.8 541C503 541 457 541 411.2 541C365.3 541 319.7 541 274 541C228.3 541 182.7 541 137 541C91.3 541 45.7 541 22.8 541L0 541Z" fill="#c4fcef"></path><path d="M0 423L22.8 419.5C45.7 416 91.3 409 137 405.3C182.7 401.7 228.3 401.3 274 401.5C319.7 401.7 365.3 402.3 411.2 405.8C457 409.3 503 415.7 548.8 410.5C594.7 405.3 640.3 388.7 686 384.3C731.7 380 777.3 388 823 394C868.7 400 914.3 404 937.2 406L960 408L960 541L937.2 541C914.3 541 868.7 541 823 541C777.3 541 731.7 541 686 541C640.3 541 594.7 541 548.8 541C503 541 457 541 411.2 541C365.3 541 319.7 541 274 541C228.3 541 182.7 541 137 541C91.3 541 45.7 541 22.8 541L0 541Z" fill="#b6ede1"></path><path d="M0 417L22.8 417C45.7 417 91.3 417 137 419.2C182.7 421.3 228.3 425.7 274 432.7C319.7 439.7 365.3 449.3 411.2 448.2C457 447 503 435 548.8 431.3C594.7 427.7 640.3 432.3 686 438.3C731.7 444.3 777.3 451.7 823 446.8C868.7 442 914.3 425 937.2 416.5L960 408L960 541L937.2 541C914.3 541 868.7 541 823 541C777.3 541 731.7 541 686 541C640.3 541 594.7 541 548.8 541C503 541 457 541 411.2 541C365.3 541 319.7 541 274 541C228.3 541 182.7 541 137 541C91.3 541 45.7 541 22.8 541L0 541Z" fill="#a8dfd3"></path><path d="M0 476L22.8 471.5C45.7 467 91.3 458 137 454.2C182.7 450.3 228.3 451.7 274 450.8C319.7 450 365.3 447 411.2 445.2C457 443.3 503 442.7 548.8 447.8C594.7 453 640.3 464 686 469.8C731.7 475.7 777.3 476.3 823 475.8C868.7 475.3 914.3 473.7 937.2 472.8L960 472L960 541L937.2 541C914.3 541 868.7 541 823 541C777.3 541 731.7 541 686 541C640.3 541 594.7 541 548.8 541C503 541 457 541 411.2 541C365.3 541 319.7 541 274 541C228.3 541 182.7 541 137 541C91.3 541 45.7 541 22.8 541L0 541Z" fill="#9ad1c5"></path><path d="M0 474L22.8 476.5C45.7 479 91.3 484 137 488.7C182.7 493.3 228.3 497.7 274 499.5C319.7 501.3 365.3 500.7 411.2 502C457 503.3 503 506.7 548.8 503.3C594.7 500 640.3 490 686 490C731.7 490 777.3 500 823 505.8C868.7 511.7 914.3 513.3 937.2 514.2L960 515L960 541L937.2 541C914.3 541 868.7 541 823 541C777.3 541 731.7 541 686 541C640.3 541 594.7 541 548.8 541C503 541 457 541 411.2 541C365.3 541 319.7 541 274 541C228.3 541 182.7 541 137 541C91.3 541 45.7 541 22.8 541L0 541Z" fill="#8dc3b7"></path></svg>